<?xml version="1.0" standalone="no"?>
<!DOCTYPE svg PUBLIC "-//W3C//DTD SVG 20010904//EN"
 "http://www.w3.org/TR/2001/REC-SVG-20010904/DTD/svg10.dtd">
<svg version="1.0" xmlns="http://www.w3.org/2000/svg"
 width="1024.000000pt" height="1024.000000pt" viewBox="0 0 1024.000000 1024.000000"
 preserveAspectRatio="xMidYMid meet">

<g transform="translate(0.000000,1024.000000) scale(0.100000,-0.100000)"
fill="#000000" stroke="none">
<path d="M1525 10006 c-315 -147 -491 -235 -512 -255 -36 -35 -57 -98 -48
-142 4 -16 71 -168 150 -337 l144 -307 -152 -5 c-172 -6 -204 -16 -268 -83
-76 -77 -69 337 -67 -4287 l3 -4155 22 -40 c28 -52 68 -89 123 -114 l45 -21
4155 0 4155 0 45 21 c55 25 95 62 123 114 l22 40 3 4155 c2 4624 9 4210 -67
4287 -64 67 -96 77 -268 83 l-152 5 146 310 c126 268 146 317 146 361 1 40 -5
61 -25 91 -30 45 16 21 -590 304 -364 170 -433 199 -473 199 -57 0 -108 -23
-131 -58 -10 -15 -142 -292 -294 -617 l-276 -590 -2364 0 -2364 0 -276 590
c-152 325 -284 602 -294 617 -24 36 -74 58 -133 58 -41 -1 -113 -31 -528 -224z
m655 -599 c109 -235 202 -432 205 -437 4 -7 -127 -9 -375 -8 l-382 3 -138 295
c-75 162 -135 296 -131 298 3 1 139 65 301 141 162 77 301 139 308 138 7 -1
102 -195 212 -430z m6366 307 c148 -69 285 -133 305 -142 l37 -17 -138 -295
-138 -295 -381 -3 c-370 -2 -382 -2 -372 16 13 25 369 787 387 830 8 17 18 32
23 32 4 0 129 -57 277 -126z m414 -5104 l0 -3840 -3840 0 -3840 0 0 3840 0
3840 3840 0 3840 0 0 -3840z"/>
<path d="M3075 7675 c-175 -31 -381 -106 -528 -192 -314 -184 -573 -501 -687
-841 -97 -291 -106 -635 -24 -920 76 -263 209 -485 406 -681 464 -459 1164
-577 1755 -295 209 100 439 289 576 474 341 463 401 1079 153 1593 -205 426
-588 732 -1056 844 -90 21 -134 25 -310 29 -147 2 -228 -1 -285 -11z m485
-341 c704 -133 1140 -867 924 -1556 -163 -520 -674 -875 -1214 -845 -442 25
-820 269 -1019 657 -93 180 -133 350 -132 558 0 295 92 547 282 776 114 138
239 234 414 317 225 108 493 141 745 93z"/>
<path d="M3240 6687 c-84 -19 -149 -55 -210 -116 -131 -132 -162 -320 -81
-486 77 -155 228 -242 407 -233 271 14 455 282 375 546 -62 205 -285 336 -491
289z m143 -347 c50 -39 42 -117 -15 -146 -88 -46 -172 70 -102 140 33 32 80
35 117 6z"/>
<path d="M6715 7683 c-375 -48 -743 -249 -984 -536 -372 -443 -470 -1036 -261
-1571 128 -327 380 -613 701 -794 130 -73 336 -143 514 -173 102 -17 361 -15
475 4 670 113 1187 639 1286 1309 22 148 15 401 -15 536 -69 313 -217 580
-442 798 -235 227 -515 368 -834 419 -83 14 -359 19 -440 8z m322 -334 c141
-15 271 -52 389 -108 139 -67 241 -138 345 -243 227 -228 350 -526 350 -848 0
-151 -13 -244 -53 -370 -225 -711 -1024 -1051 -1693 -720 -200 98 -358 238
-477 420 -321 490 -245 1138 181 1543 168 160 384 271 603 311 146 27 222 30
355 15z"/>
<path d="M6830 6689 c-106 -21 -230 -109 -285 -204 -66 -113 -73 -269 -18
-388 44 -92 109 -159 200 -204 254 -125 554 31 604 314 39 220 -119 440 -345
482 -68 12 -92 12 -156 0z m144 -355 c70 -70 -14 -186 -102 -140 -16 8 -35 28
-41 44 -37 88 75 163 143 96z"/>
<path d="M2240 3739 c-14 -6 -36 -20 -48 -32 -55 -51 -52 8 -52 -1150 l0
-1074 23 -33 c12 -18 35 -43 50 -54 l28 -21 2879 0 2879 0 28 21 c15 11 38 36
51 54 l22 33 0 1077 0 1077 -22 33 c-13 18 -36 43 -51 54 l-28 21 -2867 2
c-1891 1 -2876 -2 -2892 -8z m920 -614 l0 -295 -345 0 -345 0 0 295 0 295 345
0 345 0 0 -295z m1180 0 l0 -295 -425 0 -425 0 0 288 c0 159 3 292 7 295 3 4
195 7 425 7 l418 0 0 -295z m1128 -2 l2 -293 -400 0 -400 0 0 295 0 295 398
-2 397 -3 3 -292z m1172 2 l0 -295 -420 0 -420 0 0 295 0 295 420 0 420 0 0
-295z m1130 0 l0 -295 -395 0 -395 0 0 295 0 295 395 0 395 0 0 -295z m-4610
-1025 l0 -400 -345 0 -345 0 0 400 0 400 345 0 345 0 0 -400z m1180 0 l0 -400
-422 2 -423 3 -3 385 c-1 212 0 391 3 397 3 10 97 13 425 13 l420 0 0 -400z
m1125 0 l0 -395 -397 -3 -398 -2 0 393 c0 217 3 397 7 400 4 4 182 6 397 5
l391 -3 0 -395z m1175 0 l0 -400 -420 0 -420 0 0 400 0 400 420 0 420 0 0
-400z m1130 0 l0 -400 -395 0 -395 0 0 400 0 400 395 0 395 0 0 -400z"/>
</g>
</svg>
